<svg xmlns="http://www.w3.org/2000/svg" width="256" height="256" viewBox="0 0 100 100"><rect width="100" height="100" rx="20" fill="#000000"></rect><path d="M39.47 66.20Q39.47 73.85 35.28 77.67Q31.10 81.50 23.27 81.50L23.27 81.50L10.49 81.50L10.49 74.66L24.17 74.66Q27.50 74.66 29.57 72.68Q31.64 70.70 31.64 67.91L31.64 67.91L31.64 58.55Q31.64 55.85 30.25 54.19Q28.85 52.52 26.06 52.52L26.06 52.52L23.36 52.52Q16.70 52.52 12.83 48.61Q8.96 44.69 8.96 37.22L8.96 37.22L8.96 33.80Q8.96 26.15 13.14 22.33Q17.33 18.50 25.16 18.50L25.16 18.50L38.03 18.50L38.03 25.34L24.26 25.34Q20.93 25.34 18.86 27.32Q16.79 29.30 16.79 32.09L16.79 32.09L16.79 38.93Q16.79 41.72 18.59 43.57Q20.39 45.41 23.27 45.41L23.27 45.41L25.97 45.41Q32.36 45.41 35.91 49.10Q39.47 52.79 39.47 60.26L39.47 60.26L39.47 66.20ZM76.73 81.50L68.90 81.50L68.90 25.34L54.59 25.34L54.59 18.50L91.04 18.50L91.04 25.34L76.73 25.34L76.73 81.50Z" fill="#9cff32"></path></svg>